<svg width="74" height="46" viewBox="0 0 74 46" fill="none" xmlns="http://www.w3.org/2000/svg">
<path d="M45.4375 0.75C47.0781 0.75 48.4258 1.33594 49.4805 2.50781C50.6523 3.5625 51.2383 4.91016 51.2383 6.55078V39.5977C51.2383 41.2383 50.6523 42.7031 49.4805 43.9922C48.4258 45.1641 47.0781 45.75 45.4375 45.75H6.58984C4.94922 45.75 3.48438 45.1641 2.19531 43.9922C0.90625 42.7031 0.261719 41.2383 0.261719 39.5977V6.55078C0.261719 4.91016 0.847656 3.5625 2.01953 2.50781C3.30859 1.33594 4.83203 0.75 6.58984 0.75H45.4375ZM56.5117 15.6914L73.7383 6.375V40.125L56.5117 30.8086V15.6914Z" fill="url(#paint0_linear_345_438)"/>
<defs>
<linearGradient id="paint0_linear_345_438" x1="83.077" y1="22.913" x2="19.2074" y2="-25.5924" gradientUnits="userSpaceOnUse">
<stop stop-color="#F8BBD0"/>
<stop offset="1" stop-color="#C5CAE9"/>
</linearGradient>
</defs>
</svg>
