<svg width="56" height="57" viewBox="0 0 56 57" fill="none" xmlns="http://www.w3.org/2000/svg">
<path fill-rule="evenodd" clip-rule="evenodd" d="M46.3249 28.7153C46.4109 27.9135 46.454 27.2305 46.454 26.6663C46.454 23.7562 45.9805 23.7413 44.1586 23.7413H33.3271C34.3744 21.9596 34.9769 20.1185 34.9769 18.2477C34.9769 12.6205 26.7565 9.87366 26.7565 5.18182C26.7565 3.44465 27.4881 2.01928 28.0907 0C24.2889 1.03933 21.2905 4.97395 21.2905 9.14613C21.2905 16.3175 29.3675 16.3769 29.3675 21.7369C29.3675 22.4051 29.1667 22.999 29.0662 23.7413H21.0466C21.1614 23.2959 21.2331 22.8208 21.2331 22.3605C21.2331 18.9753 15.6237 17.3272 15.6237 14.521C15.6237 13.4816 15.7672 12.6205 16.0828 11.403C14.2321 12.1602 12.0228 14.3725 12.0228 16.8669C12.0228 20.8312 16.5993 21.2172 17.3022 23.7413H2.84116C1.01917 23.7413 0.545746 23.7562 0.545746 26.6663C0.545746 29.5765 1.65041 35.7679 4.60575 43.1472C7.5611 50.5264 10.9755 53.7781 13.3857 55.9458L13.4 55.9161C14.1317 56.5991 15.0929 57 16.1545 57H30.8452C31.9068 57 32.868 56.5991 33.5997 55.9161L33.614 55.9458C34.9052 54.7877 36.4833 53.3029 38.1188 51.061C38.793 51.3579 39.5247 51.6103 40.3281 51.8033C41.5332 52.1003 42.7383 52.2488 43.886 52.2488C47.3291 52.2488 50.4279 50.8828 52.6085 48.4181C54.5309 46.2503 55.6356 43.3105 55.6356 40.3707C55.6356 34.5949 51.6186 29.7695 46.3249 28.7153ZM45.1457 49.4336C43.6769 49.4336 42.4814 49.2172 41.3713 48.6762C42.0544 47.2335 42.7205 45.8088 43.3695 44.1496C45.0945 39.7493 46.29 35.6736 47.0586 32.2832C50.8159 33.0587 53.6681 36.5753 53.6681 40.7773C53.6681 44.871 50.7305 49.4336 45.1457 49.4336Z" fill="white"/>
</svg>
