<svg width="18" height="18" viewBox="0 0 18 18" fill="none" xmlns="http://www.w3.org/2000/svg">
<path fill-rule="evenodd" clip-rule="evenodd" d="M8.87412 0C3.97304 0 0 3.98436 0 8.8993C0 13.8142 3.97304 17.7986 8.87412 17.7986C13.7751 17.7986 17.7482 13.8142 17.7482 8.8993C17.7482 3.98436 13.7751 0 8.87412 0ZM7.95475 16.4722C6.27106 16.27 4.71322 15.5142 3.49555 14.2931C2.05888 12.8523 1.26772 10.9368 1.26772 8.8993C1.26772 7.0651 1.90922 5.32999 3.08525 3.95082C3.11554 4.31522 3.19033 4.70589 3.17117 4.98515C3.10121 6.00322 3.00103 6.64037 3.59525 7.49928C3.82675 7.83382 3.88362 8.3134 3.9963 8.7006C4.1065 9.07942 4.54675 9.27812 4.85039 9.51151C5.463 9.98253 6.04908 10.53 6.69868 10.9446C7.12741 11.2182 7.39521 11.3543 7.26965 11.8789C7.16867 12.3009 7.14046 12.5608 6.92279 12.9367C6.85637 13.0514 7.17353 13.7889 7.27908 13.8948C7.59897 14.2155 7.9164 14.5098 8.26509 14.7986C8.80568 15.2465 8.21257 15.8285 7.95475 16.4722ZM14.2526 14.2931C13.159 15.3898 11.791 16.1109 10.3038 16.393C10.5146 15.8704 10.8899 15.406 11.238 15.1368C11.5407 14.9025 11.92 14.4518 12.0781 14.0949C12.2362 13.7384 12.4455 13.4293 12.6574 13.1015C12.9588 12.6352 11.9142 11.9319 11.5757 11.7846C10.814 11.4529 10.2406 11.0054 9.56365 10.5277C9.08134 10.1874 8.10211 10.7055 7.55759 10.4671C6.81178 10.1405 6.19733 9.57308 5.54905 9.08349C4.88008 8.57824 4.91242 7.98922 4.91242 7.24386C5.43642 7.26324 6.18185 7.09843 6.52973 7.52102C6.6395 7.65438 7.01695 8.25016 7.26961 8.03846C7.47602 7.86548 7.11666 7.17211 7.04724 7.0091C6.83371 6.50787 7.53378 6.31238 7.89212 5.9725C8.35972 5.52907 9.36275 4.83365 9.28348 4.51579C9.20421 4.19794 8.27985 3.2974 7.73695 3.43791C7.65559 3.45896 6.93926 4.21219 6.80086 4.33036C6.80453 4.08452 6.8082 3.83872 6.81195 3.59288C6.8143 3.43765 6.5232 3.27832 6.53673 3.1782C6.57086 2.92517 7.27319 2.46596 7.4479 2.26444C7.3255 2.18773 6.90782 1.82795 6.7814 1.88075C6.47533 2.00867 6.12967 2.09681 5.8236 2.2247C5.8236 2.11825 5.81071 2.01826 5.79535 1.91951C6.40869 1.64718 7.05765 1.45782 7.72846 1.3568L8.32934 1.59896L8.75359 2.10387L9.17699 2.54169L9.5471 2.66128L10.135 2.10528L9.98338 1.70837V1.35158C11.146 1.52092 12.2439 1.95588 13.2055 2.62658C13.0334 2.64202 12.8444 2.66739 12.6311 2.6946C12.543 2.64241 12.43 2.6187 12.334 2.58238C12.6126 3.18317 12.9032 3.77566 13.1985 4.36849C13.5139 5.00175 14.2136 5.681 14.3365 6.34948C14.4813 7.13741 14.3808 7.85312 14.46 8.78014C14.5363 9.67285 15.4637 10.6872 15.4637 10.6872C15.4637 10.6872 15.8919 10.8334 16.248 10.7825C15.916 12.0995 15.2355 13.3074 14.2526 14.2931Z" fill="#304FFE"/>
</svg>
