<svg width="206" height="238" viewBox="0 0 206 238" fill="none" xmlns="http://www.w3.org/2000/svg">
<g id="Icon">
<path id="Combined Shape" fill-rule="evenodd" clip-rule="evenodd" d="M57.2847 1.35915C56.3972 2.41684 56.5352 3.99373 57.5929 4.88123L98.1932 38.949C98.2922 39.0321 98.3958 39.1061 98.5029 39.1713C98.518 39.6204 98.5924 40.0545 98.7184 40.4661H30C13.4315 40.4661 0 53.8975 0 70.4661V195.966C0 212.535 13.4315 225.966 30 225.966H62.9102L54.9151 232.675C53.8574 233.562 53.7195 235.139 54.607 236.197C55.4945 237.254 57.0714 237.392 58.1291 236.505L70.6888 225.966H135.456L148.015 236.505C149.073 237.392 150.65 237.254 151.538 236.197C152.425 235.139 152.287 233.562 151.229 232.675L143.234 225.966H176C192.569 225.966 206 212.535 206 195.966V70.4661C206 53.8975 192.569 40.4661 176 40.4661H108.282C108.424 40.0024 108.5 39.5101 108.5 39C108.5 38.9298 108.499 38.86 108.496 38.7905L148.907 4.88123C149.965 3.99373 150.103 2.41684 149.215 1.35915C148.328 0.301467 146.751 0.163507 145.693 1.05101L105.775 34.5464C105.093 34.1971 104.319 34 103.5 34C102.558 34 101.677 34.2606 100.924 34.7136L60.8068 1.05101C59.7491 0.163507 58.1722 0.301467 57.2847 1.35915Z" fill="url(#paint0_linear_0_240)"/>
<g id="Title" clip-path="url(#clip0_0_240)">
<path id="404" d="M73.8 150.505H64.11V163H50.68V150.505H18.635V141.24L46.685 103.5H61.135L35.125 139.285H51.105V128.15H64.11V139.285H73.8V150.505ZM103.419 164.02C98.4885 164.02 94.0968 162.802 90.2435 160.365C86.3902 157.928 83.3585 154.415 81.1485 149.825C78.9952 145.178 77.9185 139.653 77.9185 133.25C77.9185 126.847 78.9952 121.35 81.1485 116.76C83.3585 112.113 86.3902 108.572 90.2435 106.135C94.0968 103.698 98.4885 102.48 103.419 102.48C108.349 102.48 112.74 103.698 116.594 106.135C120.447 108.572 123.45 112.113 125.604 116.76C127.814 121.35 128.919 126.847 128.919 133.25C128.919 139.653 127.814 145.178 125.604 149.825C123.45 154.415 120.447 157.928 116.594 160.365C112.74 162.802 108.349 164.02 103.419 164.02ZM103.419 152.375C107.045 152.375 109.879 150.817 111.919 147.7C114.015 144.583 115.064 139.767 115.064 133.25C115.064 126.733 114.015 121.917 111.919 118.8C109.879 115.683 107.045 114.125 103.419 114.125C99.8485 114.125 97.0152 115.683 94.9185 118.8C92.8785 121.917 91.8585 126.733 91.8585 133.25C91.8585 139.767 92.8785 144.583 94.9185 147.7C97.0152 150.817 99.8485 152.375 103.419 152.375ZM190.094 150.505H180.404V163H166.974V150.505H134.929V141.24L162.979 103.5H177.429L151.419 139.285H167.399V128.15H180.404V139.285H190.094V150.505Z" fill="#880E4F"/>
</g>
</g>
<defs>
<linearGradient id="paint0_linear_0_240" x1="231.268" y1="118.568" x2="72.5807" y2="-20.3768" gradientUnits="userSpaceOnUse">
<stop stop-color="#F8BBD0"/>
<stop offset="1" stop-color="#C5CAE9"/>
</linearGradient>
<clipPath id="clip0_0_240">
<rect width="175" height="50" fill="white" transform="translate(16 108)"/>
</clipPath>
</defs>
</svg>
