<svg width="1440" height="764" viewBox="0 0 1440 764" fill="none" xmlns="http://www.w3.org/2000/svg">
<path fill-rule="evenodd" clip-rule="evenodd" d="M0 63.2833C0 63.2833 283.196 151.066 548.438 151.066C813.679 151.066 949.747 31.6684 1106.44 6.05042C1263.13 -19.5676 1440 63.2833 1440 63.2833V764H0V63.2833Z" fill="#F8BBD0"/>
<mask id="mask0_0_322" style="mask-type:alpha" maskUnits="userSpaceOnUse" x="0" y="1" width="1440" height="763">
<path fill-rule="evenodd" clip-rule="evenodd" d="M0 63.2833C0 63.2833 283.196 151.066 548.438 151.066C813.679 151.066 949.747 31.6684 1106.44 6.05042C1263.13 -19.5676 1440 63.2833 1440 63.2833V764H0V63.2833Z" fill="white"/>
</mask>
<g mask="url(#mask0_0_322)">
<path fill-rule="evenodd" clip-rule="evenodd" d="M-156 12L297.179 12C297.179 12 234.5 12 313.275 141.878C359.175 217.554 432 300.952 432 378.875C432 465.686 379.602 519.884 352.944 626.19C327.268 728.577 413.234 838 413.234 838H-156V12Z" fill="#E91E63"/>
<path d="M1883.11 -350.918L1800.99 951.65L1270.27 892.823C1271.7 890.595 1273.45 887.85 1275.47 884.628C1281.53 874.989 1290.08 861.078 1300.04 843.967C1319.95 809.755 1345.54 762.697 1368.2 711.376C1390.84 660.095 1410.65 604.338 1418.86 552.77C1427.04 501.339 1423.84 453.132 1399.26 417.845C1385.53 398.138 1371 379.99 1357.01 362.523L1356.88 362.361C1342.9 344.906 1329.48 328.159 1317.71 310.996C1294.15 276.654 1277.44 241.01 1276.66 196.033C1275.78 145.925 1295.21 109.061 1318.61 68.2205C1320.01 65.7784 1321.42 63.3229 1322.85 60.8505C1345.17 22.0416 1369.89 -20.9268 1381.68 -81.4268C1393.85 -143.853 1377.67 -210.796 1358.78 -261.731C1349.3 -287.273 1339.08 -308.954 1331.23 -324.255C1327.6 -331.313 1324.48 -337.02 1322.16 -341.128L1883.11 -350.918Z" stroke="url(#paint0_linear_0_322)" stroke-width="10"/>
</g>
<defs>
<linearGradient id="paint0_linear_0_322" x1="942.072" y1="283.935" x2="1615.97" y2="1077.87" gradientUnits="userSpaceOnUse">
<stop stop-color="#E91E63"/>
<stop offset="1" stop-color="#304FFE"/>
</linearGradient>
</defs>
</svg>
