<svg width="14" height="22" viewBox="0 0 14 22" fill="none" xmlns="http://www.w3.org/2000/svg">
<path fill-rule="evenodd" clip-rule="evenodd" d="M10.4662 1.30367C11.1101 1.84067 12.4576 2.97018 12.4576 5.11933C12.4576 7.21073 11.2798 8.19988 10.1019 9.13138C9.73592 9.4993 9.31555 9.89448 9.31555 10.5165C9.31555 11.1385 9.73587 11.4784 10.0446 11.7318L11.0544 12.5229C12.2897 13.5683 13.4118 14.5302 13.4118 16.4797C13.4118 19.1362 10.8578 21.82 6.03189 21.82C1.96329 21.82 0 19.8704 0 17.779C0 16.7619 0.505377 15.3213 2.16063 14.3314C3.89886 13.258 6.25787 13.117 7.51904 13.032C7.12666 12.5229 6.67819 11.985 6.67819 11.1105C6.67819 10.6295 6.81797 10.3474 6.95807 10.0083C6.64932 10.0364 6.34129 10.0644 6.06047 10.0644C3.08627 10.0644 1.40226 7.8319 1.40226 5.62829C1.40226 4.32809 1.99275 2.886 3.19833 1.84067C4.79832 0.512424 6.70683 0.286377 8.22056 0.286377H14L12.2045 1.30367H10.4662ZM8.46308 13.8364C8.23848 13.8075 8.10019 13.8075 7.82282 13.8075C7.5715 13.8075 6.06659 13.8654 4.89676 14.2722C4.28327 14.5058 2.5 15.2032 2.5 17.2697C2.5 19.3354 4.42155 20.8185 7.40466 20.8185C10.0803 20.8185 11.5 19.4816 11.5 17.6775C11.5001 16.1926 10.5813 15.4078 8.46308 13.8364ZM9.31133 8.51264C9.94531 7.86604 10 6.96588 10 6.46035C10 4.43662 8.8158 1.28794 6.53248 1.28794C5.81727 1.28794 5.04598 1.65313 4.60502 2.21605C4.13737 2.80692 4 3.56524 4 4.29556C4 6.17889 5.07263 9.30046 7.44028 9.30046C8.12799 9.30041 8.86952 8.96244 9.31133 8.51264Z" fill="white"/>
</svg>
