<svg width="74" height="68" viewBox="0 0 74 68" fill="none" xmlns="http://www.w3.org/2000/svg">
<path d="M32.2539 39.875C32.2539 49.6016 32.4883 55.8711 32.957 58.6836C33.1914 59.8555 33.3086 61.6719 33.3086 64.1328L6.41406 36.1836C2.42969 32.082 0.4375 27.1016 0.4375 21.2422C0.4375 15.2656 2.42969 10.2266 6.41406 6.125C9.92969 2.49219 14.0898 0.617188 18.8945 0.5C23.8164 0.382812 28.0938 2.08203 31.7266 5.59766C31.375 8.17578 31.1992 10.8711 31.1992 13.6836C30.4961 14.1523 28.9141 15.1484 26.4531 16.6719C24.1094 18.0781 22.4102 19.3672 21.3555 20.5391L23.2891 19.3086C24.4609 18.4883 26.5117 17.668 29.4414 16.8477C30.2617 16.6133 30.9062 16.3203 31.375 15.9688V16.4961L31.1992 17.0234C31.3164 18.3125 31.7266 20.1875 32.4297 22.6484C33.25 24.9922 33.7188 26.6328 33.8359 27.5703C33.8359 28.9766 33.7773 29.8555 33.6602 30.207C32.957 31.6133 32.4883 34.8359 32.2539 39.875ZM48.6016 42.1602C49.6562 44.3867 51.8828 46.6719 55.2812 49.0156L37 68L34.0117 64.8359C34.0117 64.0156 33.8945 62.9023 33.6602 61.4961C33.4258 59.9727 33.3086 58.8594 33.3086 58.1562C33.0742 53.1172 34.3047 44.7969 37 33.1953C37.1172 33.3125 37.293 33.3711 37.5273 33.3711C42.918 34.4258 46.6094 37.3555 48.6016 42.1602ZM67.5859 6.125C71.5703 10.2266 73.5625 15.2656 73.5625 21.2422C73.5625 27.1016 71.5703 32.082 67.5859 36.1836L55.6328 48.4883C53.7578 46.8477 51.5312 44.2695 48.9531 40.7539C46.4922 37.2383 44.9102 35.0703 44.207 34.25C42.4492 32.2578 40.0469 30.3828 37 28.625C36.7656 27.8047 36.4141 26.6328 35.9453 25.1094C35.4766 23.5859 35.1836 22.4727 35.0664 21.7695C34.832 20.9492 35.1836 19.9531 36.1211 18.7812C37.1758 17.6094 37.7617 16.7891 37.8789 16.3203C38.2305 14.9141 38.4062 12.6289 38.4062 9.46484L41.7461 6.125C45.2617 2.375 49.5391 0.5 54.5781 0.5C59.7344 0.5 64.0703 2.375 67.5859 6.125Z" fill="url(#paint0_linear_334_198)"/>
<defs>
<linearGradient id="paint0_linear_334_198" x1="83.077" y1="33.913" x2="19.2074" y2="-14.5924" gradientUnits="userSpaceOnUse">
<stop stop-color="#E91E63"/>
<stop offset="1" stop-color="#304FFE"/>
</linearGradient>
</defs>
</svg>
