<svg width="35" height="35" viewBox="0 0 35 35" fill="none" xmlns="http://www.w3.org/2000/svg">
<ellipse cx="17.6047" cy="17.1137" rx="17.0653" ry="17.1137" fill="black" fill-opacity="0.12"/>
<ellipse cx="17.6047" cy="17.342" rx="3.18551" ry="3.19455" fill="#304FFE"/>
<path fill-rule="evenodd" clip-rule="evenodd" d="M14.7627 13.9995C15.5878 13.172 16.6849 12.7114 17.8518 12.7114C19.0187 12.7114 20.1158 13.1745 20.9409 14.0019C21.4644 14.527 21.8385 15.1579 22.0421 15.862H25.3215V11.4418C25.3215 10.4048 24.5223 9.60327 23.4882 9.60327H12.2544C11.2203 9.60327 10.3431 10.4048 10.3431 11.4418V15.862H13.6614C13.8651 15.1579 14.2391 14.5245 14.7627 13.9995ZM24.0733 12.8578C24.0733 13.1343 23.8498 13.3585 23.574 13.3585H22.0762C21.8004 13.3585 21.5769 13.1344 21.5769 12.8578V11.3557C21.5769 11.0792 21.8004 10.855 22.0762 10.855H23.574C23.8498 10.855 24.0733 11.0792 24.0733 11.3557V12.8578Z" fill="#304FFE"/>
<path fill-rule="evenodd" clip-rule="evenodd" d="M20.9409 20.1954C20.1158 21.0228 19.0187 21.4737 17.8518 21.4737C16.6849 21.4737 15.5878 21.0253 14.7627 20.1978C13.9391 19.3719 13.4849 18.2482 13.4832 17.1138H10.3431V22.7075C10.3431 23.7445 11.2203 24.6242 12.2544 24.6242H23.4882C24.5223 24.6242 25.3215 23.7445 25.3215 22.7075V17.1138H22.2204C22.2187 18.2482 21.7646 19.3694 20.9409 20.1954Z" fill="#304FFE"/>
</svg>
