<svg width="35" height="35" viewBox="0 0 35 35" fill="none" xmlns="http://www.w3.org/2000/svg">
<ellipse cx="17.5784" cy="17.1137" rx="17.0653" ry="17.1137" fill="black" fill-opacity="0.12"/>
<path fill-rule="evenodd" clip-rule="evenodd" d="M24.6871 9.1272H11.0143C10.2675 9.1272 9.61462 9.66642 9.61462 10.4068V24.1484C9.61462 24.893 10.2675 25.5563 11.0143 25.5563H24.6829C25.4339 25.5563 25.9972 24.8887 25.9972 24.1484V10.4068C26.0015 9.66642 25.4339 9.1272 24.6871 9.1272ZM14.6929 22.8217H12.3458V15.5037H14.6929V22.8217ZM13.6004 14.391H13.5833C12.8323 14.391 12.3458 13.8304 12.3458 13.1286C12.3458 12.4139 12.8451 11.8661 13.6132 11.8661C14.3813 11.8661 14.8507 12.4096 14.8678 13.1286C14.8678 13.8304 14.3813 14.391 13.6004 14.391ZM23.2704 22.8217H20.9233V18.8203C20.9233 17.8617 20.5819 17.207 19.7327 17.207C19.084 17.207 18.7 17.6478 18.5293 18.0757C18.4653 18.2298 18.4482 18.4395 18.4482 18.6534V22.8217H16.1011V15.5037H18.4482V16.5222C18.7896 16.0344 19.323 15.3325 20.5648 15.3325C22.1054 15.3325 23.2704 16.3511 23.2704 18.5465V22.8217Z" fill="#304FFE"/>
</svg>
