<svg width="146" height="126" viewBox="0 0 146 126" fill="none" xmlns="http://www.w3.org/2000/svg">
<g filter="url(#filter0_d_0_433)">
<rect x="47" y="47" width="51.5" height="31.5" rx="15.75" fill="white"/>
</g>
<path fill-rule="evenodd" clip-rule="evenodd" d="M78.5856 70.8024C78.3241 70.536 78.3325 70.1149 78.5856 69.8313L84.1881 63.438H60.175C59.8038 63.438 59.5 63.1287 59.5 62.7506C59.5 62.3725 59.8038 62.0631 60.175 62.0631H84.1881L78.5941 55.6699C78.3494 55.3777 78.3241 54.9738 78.5856 54.7074C78.8472 54.441 79.3028 54.4239 79.5475 54.6988C79.5475 54.6988 86.23 62.1749 86.2975 62.2608C86.365 62.3467 86.5 62.5014 86.5 62.7506C86.5 62.9998 86.365 63.1717 86.2975 63.2404C86.23 63.3091 79.5475 70.8024 79.5475 70.8024C79.4209 70.9313 79.2437 71 79.0666 71C78.8894 71 78.7206 70.9313 78.5856 70.8024Z" fill="black" fill-opacity="0.87"/>
<defs>
<filter id="filter0_d_0_433" x="0" y="0" width="145.5" height="125.5" filterUnits="userSpaceOnUse" color-interpolation-filters="sRGB">
<feFlood flood-opacity="0" result="BackgroundImageFix"/>
<feColorMatrix in="SourceAlpha" type="matrix" values="0 0 0 0 0 0 0 0 0 0 0 0 0 0 0 0 0 0 127 0" result="hardAlpha"/>
<feMorphology radius="2" operator="erode" in="SourceAlpha" result="effect1_dropShadow_0_433"/>
<feOffset/>
<feGaussianBlur stdDeviation="24.5"/>
<feColorMatrix type="matrix" values="0 0 0 0 0 0 0 0 0 0 0 0 0 0 0 0 0 0 0.19 0"/>
<feBlend mode="normal" in2="BackgroundImageFix" result="effect1_dropShadow_0_433"/>
<feBlend mode="normal" in="SourceGraphic" in2="effect1_dropShadow_0_433" result="shape"/>
</filter>
</defs>
</svg>
