<svg width="28" height="17" viewBox="0 0 28 17" fill="none" xmlns="http://www.w3.org/2000/svg">
<path fill-rule="evenodd" clip-rule="evenodd" d="M19.5856 16.8024C19.3241 16.536 19.3325 16.1149 19.5856 15.8313L25.1881 9.43805H1.175C0.80375 9.43805 0.5 9.12869 0.5 8.75059C0.5 8.3725 0.80375 8.06314 1.175 8.06314H25.1881L19.5941 1.66985C19.3494 1.37769 19.3241 0.973811 19.5856 0.707424C19.8472 0.441037 20.3028 0.423851 20.5475 0.698831C20.5475 0.698831 27.23 8.17485 27.2975 8.26079C27.365 8.34672 27.5 8.50139 27.5 8.75059C27.5 8.99979 27.365 9.17166 27.2975 9.2404C27.23 9.30915 20.5475 16.8024 20.5475 16.8024C20.4209 16.9313 20.2438 17 20.0666 17C19.8894 17 19.7206 16.9313 19.5856 16.8024V16.8024Z" fill="black" fill-opacity="0.87"/>
</svg>
