<svg width="74" height="74" viewBox="0 0 74 74" fill="none" xmlns="http://www.w3.org/2000/svg">
<rect width="74" height="74" rx="37" fill="#424242"/>
<path fill-rule="evenodd" clip-rule="evenodd" d="M50.3612 48.2245C49.9931 47.8532 50.005 47.2662 50.3612 46.871L58.2463 37.9591H24.45C23.9275 37.9591 23.5 37.5279 23.5 37.0008C23.5 36.4738 23.9275 36.0426 24.45 36.0426H58.2463L50.3731 27.1307C50.0287 26.7234 49.9931 26.1605 50.3612 25.7891C50.7294 25.4178 51.3706 25.3939 51.715 25.7772C51.715 25.7772 61.12 36.1983 61.215 36.3181C61.31 36.4378 61.5 36.6535 61.5 37.0008C61.5 37.3482 61.31 37.5878 61.215 37.6836C61.12 37.7794 51.715 48.2245 51.715 48.2245C51.5369 48.4042 51.2875 48.5 51.0381 48.5C50.7887 48.5 50.5513 48.4042 50.3612 48.2245Z" fill="white"/>
</svg>
