<svg width="94" height="57" viewBox="0 0 94 57" fill="none" xmlns="http://www.w3.org/2000/svg">
<path d="M18.875 30.0078C26.1406 34.4609 33.9922 38.5039 42.4297 42.1367C50.6328 45.6523 58.0156 48.3477 64.5781 50.2227C59.5391 54.3242 53.6797 56.375 47 56.375C39.5 56.375 33.0547 53.8555 27.6641 48.8164C22.2734 43.6602 19.3438 37.3906 18.875 30.0078ZM20.8086 17.8789C20.9258 17.1758 21.2188 16.5312 21.6875 15.9453C23.3281 12.4297 25.9062 9.20703 29.4219 6.27734C34.4609 2.17578 40.3203 0.125 47 0.125C54.5 0.125 60.9453 2.70313 66.3359 7.85938C71.7266 12.8984 74.6562 19.1094 75.125 26.4922V28.25C75.125 31.8828 74.4805 35.3398 73.1914 38.6211C73.0742 39.3242 72.7812 39.9688 72.3125 40.5547C71.375 40.4375 70.2617 40.1445 68.9727 39.6758C61.5898 37.5664 54.207 34.9297 46.8242 31.7656C36.8633 27.5469 28.1914 22.918 20.8086 17.8789ZM77.5859 33.3477C88.0156 39.793 92.7617 44.5977 91.8242 47.7617C91.1211 49.7539 88.543 50.75 84.0898 50.75C74.3633 50.75 60.8281 47 43.4844 39.5C31.1797 34.1094 20.9844 28.4258 12.8984 22.4492C4.8125 16.3555 1.23828 11.7852 2.17578 8.73828C2.99609 6.16016 5.57422 5.16406 9.91016 5.75C14.0117 6.33594 18.2891 7.39062 22.7422 8.91406C22.5078 9.26562 21.6875 10.5547 20.2812 12.7812C15.9453 11.8438 12.4883 11.375 9.91016 11.375H8.85547C8.97266 11.4922 9.14844 11.7266 9.38281 12.0781C9.73438 12.4297 10.0273 12.7227 10.2617 12.957C12.2539 14.9492 14.9492 17.1172 18.3477 19.4609C25.4961 24.5 34.6367 29.4805 45.7695 34.4023C53.5039 37.8008 61.0039 40.4961 68.2695 42.4883C74.5977 44.2461 79.8711 45.125 84.0898 45.125H85.1445C85.0273 45.0078 84.793 44.7734 84.4414 44.4219C84.207 44.0703 83.9727 43.7773 83.7383 43.543C81.7461 41.5508 79.3438 39.5586 76.5312 37.5664C77.1172 35.9258 77.4688 34.5195 77.5859 33.3477Z" fill="url(#paint0_linear_345_426)"/>
<defs>
<linearGradient id="paint0_linear_345_426" x1="103.04" y1="27.913" x2="36.9453" y2="-33.1349" gradientUnits="userSpaceOnUse">
<stop stop-color="#F8BBD0"/>
<stop offset="1" stop-color="#C5CAE9"/>
</linearGradient>
</defs>
</svg>
