<svg width="27" height="17" viewBox="0 0 27 17" fill="none" xmlns="http://www.w3.org/2000/svg">
<path fill-rule="evenodd" clip-rule="evenodd" d="M7.91438 16.8024C8.17594 16.536 8.1675 16.1149 7.91438 15.8313L2.31187 9.43805H26.325C26.6962 9.43805 27 9.12869 27 8.75059C27 8.3725 26.6962 8.06314 26.325 8.06314H2.31187L7.90594 1.66985C8.15062 1.37769 8.17594 0.973811 7.91438 0.707424C7.65281 0.441037 7.19719 0.423851 6.9525 0.698831C6.9525 0.698831 0.269999 8.17485 0.202499 8.26079C0.134999 8.34672 0 8.50139 0 8.75059C0 8.99979 0.134999 9.17166 0.202499 9.2404C0.269999 9.30915 6.9525 16.8024 6.9525 16.8024C7.07906 16.9313 7.25625 17 7.43344 17C7.61062 17 7.77938 16.9313 7.91438 16.8024V16.8024Z" fill="black" fill-opacity="0.87"/>
</svg>
