<svg width="74" height="74" viewBox="0 0 74 74" fill="none" xmlns="http://www.w3.org/2000/svg">
<rect width="74" height="74" rx="37" fill="#424242"/>
<path fill-rule="evenodd" clip-rule="evenodd" d="M24.6388 48.2245C25.0069 47.8532 24.995 47.2662 24.6388 46.871L16.7537 37.9591H50.55C51.0725 37.9591 51.5 37.5279 51.5 37.0008C51.5 36.4738 51.0725 36.0426 50.55 36.0426H16.7537L24.6269 27.1307C24.9713 26.7234 25.0069 26.1605 24.6388 25.7891C24.2706 25.4178 23.6294 25.3939 23.285 25.7772C23.285 25.7772 13.88 36.1983 13.785 36.3181C13.69 36.4378 13.5 36.6535 13.5 37.0008C13.5 37.3482 13.69 37.5878 13.785 37.6836C13.88 37.7794 23.285 48.2245 23.285 48.2245C23.4631 48.4042 23.7125 48.5 23.9619 48.5C24.2113 48.5 24.4487 48.4042 24.6388 48.2245Z" fill="white"/>
</svg>
