<svg width="18" height="21" viewBox="0 0 18 21" fill="none" xmlns="http://www.w3.org/2000/svg">
<path fill-rule="evenodd" clip-rule="evenodd" d="M14.9917 14.3145C14.2395 14.3145 13.5374 14.5682 13.036 15.0758L5.86613 10.8629C5.91633 10.609 5.96653 10.4058 5.96653 10.152C5.96653 9.89815 5.91633 9.69494 5.86613 9.44117L12.9361 5.2792C13.4874 5.78678 14.1896 6.09115 14.9917 6.09115C16.6461 6.09115 18 4.72054 18 3.04555C18 1.37066 16.6461 0 14.9917 0C13.3371 0 11.9833 1.37066 11.9833 3.0456C11.9833 3.29942 12.0332 3.50268 12.0837 3.75645L5.01394 7.91842C4.46236 7.41079 3.76045 7.10646 2.95819 7.10646C1.30369 7.10646 0 8.47708 0 10.1521C0 11.827 1.35361 13.1977 3.00834 13.1977C3.81061 13.1977 4.51252 12.8932 5.06409 12.3857L12.184 16.5987C12.1335 16.8014 12.0836 17.0047 12.0836 17.2584C12.0836 18.8829 13.387 20.2024 14.9916 20.2024C16.5961 20.2024 17.8995 18.8829 17.8995 17.2584C17.8996 15.634 16.5962 14.3145 14.9917 14.3145Z" fill="#304FFE"/>
</svg>
