<svg width="18" height="18" viewBox="0 0 18 18" fill="none" xmlns="http://www.w3.org/2000/svg">
<path fill-rule="evenodd" clip-rule="evenodd" d="M17.325 6.75035H2.44038L17.2038 3.56269C17.5716 3.48768 17.8096 3.10797 17.7404 2.7142L17.3553 0.585972C17.2861 0.192202 16.9312 -0.0609359 16.5635 0.0140679L0.549519 3.46424C0.181731 3.53925 -0.05625 3.91895 0.0129808 4.30804L0.398077 6.43627C0.424038 6.56752 0.488942 6.68003 0.566827 6.77379C0.246635 6.83004 0 7.1113 0 7.47226V17.279C0 17.6775 0.302885 18.0009 0.675 18.0009H17.325C17.6971 18.0009 18 17.6775 18 17.279V7.47226C18 7.0738 17.6971 6.75035 17.325 6.75035ZM11.1202 15.8633L8.92644 14.1617L6.73269 15.8633L7.57644 13.1257L5.37837 11.4381H8.09135L8.92212 8.70045L9.75721 11.4381H12.4702L10.2721 13.1257L11.1202 15.8633Z" fill="#304FFE"/>
</svg>
