<svg width="20" height="17" viewBox="0 0 20 17" fill="none" xmlns="http://www.w3.org/2000/svg">
<path fill-rule="evenodd" clip-rule="evenodd" d="M20 2.18988C19.2626 2.51121 18.4743 2.72822 17.6436 2.82837C18.4912 2.32759 19.1439 1.53469 19.449 0.591546C18.6565 1.05477 17.7792 1.3928 16.8426 1.57225C16.0924 0.783513 15.0244 0.291077 13.8462 0.291077C11.5787 0.291077 9.74359 2.10224 9.74359 4.3349C9.74359 4.65206 9.7775 4.96087 9.84954 5.25717C6.4378 5.09024 3.41174 3.47939 1.39013 1.02973C1.03836 1.6265 0.834923 2.32342 0.834923 3.06207C0.834923 4.46426 1.56389 5.7037 2.66582 6.42984C1.98771 6.41314 1.35198 6.22952 0.801017 5.92488C0.801017 5.94157 0.801017 5.95827 0.801017 5.97496C0.801017 7.93636 2.21657 9.56807 4.09409 9.93949C3.75079 10.0313 3.38631 10.0814 3.01335 10.0814C2.75058 10.0814 2.49205 10.0563 2.242 10.0063C2.7633 11.6129 4.28057 12.7814 6.07756 12.8148C4.67472 13.8998 2.90316 14.5467 0.979021 14.5467C0.648442 14.5467 0.322102 14.5258 0 14.4883C1.80971 15.6484 3.96694 16.3161 6.28099 16.3161C13.8377 16.3161 17.9657 10.1523 17.9657 4.80647C17.9657 4.63119 17.9614 4.45592 17.953 4.28482C18.754 3.71309 19.449 3.00365 20 2.18988Z" fill="white"/>
</svg>
