<svg width="35" height="35" viewBox="0 0 35 35" fill="none" xmlns="http://www.w3.org/2000/svg">
<ellipse cx="17.0916" cy="17.1137" rx="17.0653" ry="17.1137" fill="black" fill-opacity="0.12"/>
<path fill-rule="evenodd" clip-rule="evenodd" d="M26.4206 11.7704C25.7494 12.0633 25.0319 12.261 24.2759 12.3523C25.0474 11.8959 25.6414 11.1733 25.9191 10.3139C25.1978 10.736 24.3993 11.044 23.5469 11.2076C22.8641 10.4888 21.892 10.04 20.8197 10.04C18.756 10.04 17.0858 11.6906 17.0858 13.7252C17.0858 14.0142 17.1166 14.2956 17.1822 14.5657C14.077 14.4135 11.3228 12.9456 9.48287 10.7132C9.16271 11.257 8.97755 11.8921 8.97755 12.5653C8.97755 13.8431 9.64102 14.9726 10.6439 15.6343C10.0268 15.6191 9.44815 15.4518 8.94669 15.1741C8.94669 15.1894 8.94669 15.2046 8.94669 15.2198C8.94669 17.0072 10.2351 18.4942 11.9439 18.8327C11.6314 18.9163 11.2997 18.962 10.9602 18.962C10.7211 18.962 10.4858 18.9392 10.2582 18.8935C10.7327 20.3577 12.1136 21.4225 13.7491 21.453C12.4723 22.4418 10.86 23.0312 9.1087 23.0312C8.80783 23.0312 8.51081 23.0122 8.21765 22.978C9.86475 24.0352 11.8282 24.6437 13.9343 24.6437C20.812 24.6437 24.5691 19.0266 24.5691 14.1549C24.5691 13.9952 24.5652 13.8355 24.5575 13.6795C25.2865 13.1585 25.9191 12.512 26.4206 11.7704Z" fill="#304FFE"/>
</svg>
