<svg width="68" height="68" viewBox="0 0 68 68" fill="none" xmlns="http://www.w3.org/2000/svg">
<path d="M47.1836 48.6641C52.457 50.3047 56.9102 52.8242 60.543 56.2227C64.1758 59.6211 66.5781 63.5469 67.75 68H0.25C1.42188 63.5469 3.82422 59.6211 7.45703 56.2227C11.0898 52.8242 15.543 50.3047 20.8164 48.6641C24.8008 51.0078 29.1953 52.1797 34 52.1797C38.8047 52.1797 43.1992 51.0078 47.1836 48.6641ZM17.4766 7.35547C22.0469 2.78516 27.5547 0.5 34 0.5C40.4453 0.5 45.8945 2.78516 50.3477 7.35547C54.918 11.8086 57.2031 17.2578 57.2031 23.7031C57.2031 30.1484 54.918 35.6562 50.3477 40.2266C45.8945 44.6797 40.4453 46.9062 34 46.9062C27.5547 46.9062 22.0469 44.6797 17.4766 40.2266C13.0234 35.6562 10.7969 30.1484 10.7969 23.7031C10.7969 17.2578 13.0234 11.8086 17.4766 7.35547ZM24.1562 38.1172C27.0859 40.1094 30.3672 41.1055 34 41.1055C37.6328 41.1055 40.9141 40.1094 43.8438 38.1172C46.7734 36.0078 48.8828 33.3125 50.1719 30.0312H17.8281C19.1172 33.3125 21.2266 36.0078 24.1562 38.1172Z" fill="url(#paint0_linear_345_430)"/>
<defs>
<linearGradient id="paint0_linear_345_430" x1="76.341" y1="33.913" x2="14.1082" y2="-9.51724" gradientUnits="userSpaceOnUse">
<stop stop-color="#F8BBD0"/>
<stop offset="1" stop-color="#C5CAE9"/>
</linearGradient>
</defs>
</svg>
